<svg viewBox="0 0 500 200" height="100%" version="1.1"
xmlns="http://www.w3.org/2000/svg"
xmlns:xlink="http://www.w3.org/1999/xlink" xml:space="preserve">
<g id="features">

<g id="10_erdek" name="erdek"  data-type="ilce" data-textpath="M230.82,21.07 Q257.09,25.73 280.94,26.6" data-fontsize="10.1px"><path d="M263.23,35.64 263.23,35.64 263.15,35.48 263.08,35.28 263.04,35.07 263.05,34.87 263.1,34.68 263.18,34.47 263.34,34.24 264.04,33.35 264.23,33.14 264.44,32.96 265.67,32.07 265.91,31.92 266.11,31.85 266.52,31.83 267.15,31.77 267.61,31.7 267.82,31.64 268,31.56 268.13,31.43 268.21,31.24 268.38,30.82 268.48,30.65 268.61,30.51 268.8,30.41 269.17,30.29 269.39,30.23 269.61,30.22 269.84,30.23 270.05,30.27 270.28,30.36 270.45,30.36 270.63,30.29 270.81,30.16 271.64,29.5 272.01,29.24 272.97,28.61 273.22,28.49 273.66,28.3 273.99,28.08 274.95,27.4 275.2,27.19 275.58,26.8 275.71,26.64 275.81,26.46 275.87,26.28 276.16,24.72 276.23,24.46 276.32,24.28 276.54,24.09 276.67,23.94 276.75,23.77 276.73,23.58 276.66,23.43 276.53,23.26 276.31,23.07 275.66,22.61 275.46,22.5 275.25,22.43 275.04,22.39 274.82,22.37 274.28,22.36 274.07,22.37 273.79,22.44 273.56,22.46 273,22.45 272.37,22.41 272.14,22.37 271.75,22.26 269.65,21.6 268.49,21.27 268,21.18 267.82,21.11 267.69,20.97 267.57,20.78 267.41,20.66 267.2,20.57 265.85,20.08 265.31,19.93 265.03,19.88 264.74,19.86 264.28,19.85 264.07,19.87 263.92,19.96 263.81,20.09 263.64,20.13 263.46,20.1 263.15,19.99 262.81,19.82 262.66,19.69 262.61,19.53 262.57,19.34 262.41,19.25 262.08,19.19 260.45,18.92 259.9,18.87 259.28,18.85 258.17,18.88 257.95,18.91 257.79,18.99 257.66,19.14 257.58,19.32 257.51,19.58 257.38,19.7 257.21,19.73 257,19.69 256.79,19.63 256.61,19.53 256.34,19.3 256.11,19.13 255.48,18.76 255.24,18.63 255.07,18.58 254.89,18.56 254.67,18.6 253.68,18.93 253.36,19.06 253.17,19.16 252.94,19.32 252.81,19.47 252.77,19.67 252.72,19.85 252.63,20.01 252.46,20.12 252.24,20.17 252.02,20.19 251.8,20.17 251.6,20.12 251.43,20.03 251.3,19.88 251.2,19.7 251.14,19.49 251.06,19.05 250.98,18.86 250.85,18.7 250.68,18.56 250.5,18.45 250.29,18.4 249.6,18.32 248.8,18.25 248.6,18.26 248.42,18.3 248.34,18.45 248.28,18.66 248.15,18.77 247.94,18.79 247.25,18.75 246.46,18.69 246.24,18.65 245.92,18.55 245.72,18.46 245.61,18.34 245.51,18.18 245.36,18.18 245.17,18.25 244.53,18.62 243.8,19.05 243.65,19.17 243.54,19.31 243.42,19.57 243.31,19.76 243.03,20.19 242.87,20.41 242.7,20.53 242.54,20.57 242.18,20.6 242.01,20.66 241.92,20.8 241.89,20.99 241.89,21.3 241.91,21.8 241.97,22.11 242.25,23.31 242.32,23.51 242.45,23.68 242.68,23.91 242.98,24.15 243.22,24.3 244.04,24.77 244.32,24.96 244.49,25.1 244.62,25.26 244.67,25.44 244.71,25.73 244.77,25.88 244.91,26.02 245.1,26.12 245.3,26.22 245.58,26.3 246.43,26.51 246.65,26.53 246.85,26.49 247.15,26.39 247.36,26.38 247.58,26.41 247.78,26.48 247.97,26.58 248.15,26.71 248.39,26.93 248.7,27.25 248.87,27.47 248.97,27.66 248.98,27.85 248.94,28.06 248.82,28.22 248.55,28.47 248.41,28.63 248.28,28.87 248.2,29.06 248.16,29.25 248.17,29.42 248.25,29.58 248.38,29.72 248.54,29.84 249.2,30.17 249.39,30.29 249.96,30.71 251.52,31.95 251.68,32.11 252.1,32.64 252.26,32.87 252.42,33.21 252.73,34.02 252.89,34.55 252.98,34.79 253.12,34.92 253.32,34.98 253.53,35.01 253.72,34.96 253.95,34.79 254.7,34.17 254.84,34 254.92,33.83 255,33.52 255.09,33.35 255.23,33.25 255.41,33.21 255.61,33.22 255.87,33.29 256.12,33.38 256.51,33.57 256.79,33.74 257.38,34.14 257.74,34.32 260.23,35.79 260.65,36.32 260.65,36.32 260.65,36.32 262.04,35.96 262.82,35.78 263.23,35.64 M231.52808775237054,21.428623339051228 231.52808775237054,21.428623339051228 231.68805676112652,21.37793139549376 231.7959925835553,21.224549828972158 231.86379292012225,21.016220027698182 231.91527984935647,20.741729613051575 231.9178023563495,20.530918487114832 231.87165128852257,20.345623018489277 231.75254744183576,20.083667792074266 231.68494858976965,19.906073041114723 231.68921312715247,19.705143119496825 231.79648695022797,19.4867403793869 231.95951363852964,19.300744938124808 232.09033342946532,19.099611151485988 232.15103694297977,18.84018743845627 232.13190067174946,18.651079315915013 232.04487777217628,18.46592938196318 231.93134961110673,18.324720409119436 231.83748072478465,18.298561422549028 231.67053663873776,18.383091100467936 231.50616048410302,18.525954749955417 231.37612031576418,18.700315557724934 231.2987324419678,18.909297620210054 231.01863614131935,20.05572361711984 230.82180175462145,20.874763982138575 230.8156451904888,21.071735054862984 230.9280906583017,21.204869413616507 231.11862460173597,21.29880798311933 231.37895062714506,21.395672052210102 231.52808775237054,21.428623339051228 M233.74695422589093,21.243648227854464 233.74695422589093,21.243648227854464 233.83672364488757,21.536725062727783 233.91764527936311,21.707244000686842 234.07702550786644,21.907036796882494 234.1921453843438,22.066047592767063 234.31819467823743,22.310309843751384 234.4139181255082,22.565327356377566 234.43391991321232,22.7721520938685 234.40258747810412,22.98126958165085 234.33386405062765,23.182878569197783 234.22427302867345,23.350535100931666 234.07151911781284,23.483851442385458 233.883984905357,23.570277602483657 233.66553291034734,23.604852631635367 233.44053427217705,23.615088334719985 233.21442346971799,23.59861376992376 232.9340295500133,23.541645275337032 232.71916644795556,23.4691380985023 232.31469284410923,23.26738650876905 232.0644162666631,23.15978866795649 231.884719374641,23.128081536959144 231.77292125860413,23.235067920430993 231.72431148351507,23.435864021167617 231.56733895305933,24.54938911026875 231.4869268554362,25.10113970911607 231.4966308855287,25.29879555644402 231.6162281765546,25.43043481096265 231.81690180832902,25.52182031562552 232.80461566927715,25.88572279751952 233.02283338800817,25.948600573524345 233.21797138349484,25.953180820478337 233.50228895250848,25.858254086785564 233.69956153701105,25.800731989696942 233.8920454672184,25.774339348872672 234.27761883083622,25.778788933897886 236.19927225777565,25.87990875504238 236.4270181873835,25.91206431545288 236.64626746345402,25.983640400522745 238.46948599111602,26.761439871674156 238.72953343253675,26.888187436199587 238.90102842489296,27.017751830687303 239.03464524577294,27.173976384431626 239.10451980542712,27.339316719776434 239.1730781182132,27.532321141752618 239.31681744326534,27.641791225654742 239.52934024649448,27.702572558158863 239.74241924873286,27.70948158837291 239.94708310837177,27.65997725741454 240.09069406766002,27.569833201705478 240.15804828549608,27.409782985652782 240.1846856084635,27.080657232592785 240.21840497801077,26.12658515948624 240.20564246711274,25.910522589725588 240.16390581781388,25.705455031607016 240.0828261300685,25.504019393329145 239.97742989553262,25.3259076698032 239.83965579724145,25.231762138901104 239.67506772112165,25.26553700383556 239.53182569440241,25.391983550055556 239.40341458119565,25.63597410307375 239.15298622381488,26.187216060815445 239.04184602730948,26.37161910309169 238.91267039425702,26.523882444739684 238.74771115657813,26.647102560424173 238.56587481059978,26.72275060021002 238.3877060126938,26.712168131100952 238.21267181897292,26.624339356452765 238.0488551042249,26.478195223134207 237.39146242170364,25.799184606840754 237.26099152233382,25.625708220439265 237.0925289196307,25.283973538262217 236.79140917983068,24.582712540666762 236.76676710073707,24.399874090756384 236.82675532983285,24.23952752673995 236.99465628917596,24.0197261360463 238.3909793400435,22.41744562033091 238.49205632108806,22.281392904828863 238.5801868351473,22.035851519211974 238.58602503860993,21.827287929412705 238.51354937757878,21.651283251633686 238.3744023118138,21.521179140157074 237.98364319036682,21.290776848552923 237.63193131883872,21.108579726160315 237.43544432377757,21.060701826197146 237.2540605174495,21.11767581759068 237.1217325468133,21.25556623549437 236.97481607798818,21.43405309199079 236.811221823938,21.50464151837059 236.62149041326165,21.48408016175472 236.4292441152843,21.42013912883158 236.23096572701706,21.32823997655305 235.98419723835423,21.182192886057237 235.82382631611245,21.046981061251245 235.70526821643261,20.88526681645544 235.54811681046613,20.525184553682266 235.4244448514819,20.27976251877135 235.26567649001436,20.135369343198363 235.06631618794881,20.032424473030915 234.84655543969393,19.97378470401236 234.31841473780332,19.936990213188437 233.91001572878986,19.928854936729294 233.7134215601195,19.98082925685958 233.6059807315405,20.123469544114414 233.59487064359746,20.32907943549344 233.64613663627006,20.77378475309979 233.74695422589093,21.243648227854464 233.74695422589093,21.243648227854464 M280.9444252932003,26.600154645240764 280.9444252932003,26.600154645240764 280.35417048296677,26.493291499880797 279.9798649245795,26.314536850197328 279.76218636476324,26.020908764804517 279.80015143049286,25.64039078609676 280.06620550282014,25.525605554935282 280.44475637110463,25.761128577722047 280.74869381740064,26.081591781243333 280.9194972107193,26.473704677313435 280.9444252932003,26.600154645240764" vector-effect="non-scaling-stroke"></path></g>
<g id="10_bandırma" name="bandırma"  data-type="ilce" data-textpath="M235.79,45.57 Q270.81,49.19 292.53,41.29" data-fontsize="7.1px"><path d="M291.26,33.65 291.26,33.65 291.68,35.56 291.92,37.53 292.53,41.29 291.36,43.99 291,47.29 290.73,50.07 289.48,50.69 284.99,50.07 282.95,50.58 283.35,53.74 285.12,55.66 287.09,60.81 287.78,63.97 288.01,65.15 288.01,65.15 288.01,65.15 286.64,65.79 286.32,65.97 286.19,66.35 286.56,66.56 286.61,67.27 286.33,67.75 286.14,68.01 286.38,68.27 286.87,68.63 286.66,68.98 286.71,69.18 286.42,69.76 286.22,70.39 285.81,70.51 285.81,70.51 285.81,70.51 284.33,69.74 283.57,69.6 282.87,69.19 282.51,69.02 282.18,68.83 282.02,68.55 281.8,68.75 281.56,68.49 281.06,68.1 280.79,67.87 280.48,67.73 280.16,67.64 279.92,67.49 279.63,67.27 279.22,67.17 278.8,67.06 278.36,67 278.17,66.54 278.09,66.21 278.14,65.67 277.2,63.64 274.89,61.2 267.56,59.81 259.28,62.02 257.26,61.57 257.26,61.57 257.26,61.57 257.69,60.35 257.68,56.61 255.43,53.41 252.73,53.22 244.64,49.84 242.45,48.4 238.83,47.45 236.19,46.31 235.79,45.57 235.98,44.83 236.18,44.14 236.12,43.5 236.57,43.3 237,43.41 236.89,42.55 236.89,42.55 236.89,42.55 236.95,42.57 237.14,42.68 238.38,43.61 238.75,43.88 239.04,44.05 239.73,44.4 240.13,44.58 240.34,44.65 240.89,44.77 241.16,44.82 241.39,44.83 241.62,44.81 242.13,44.7 242.58,44.58 242.84,44.48 243.76,44.09 244.24,43.92 244.5,43.85 244.7,43.84 244.91,43.88 245.09,43.96 245.25,44.07 245.58,44.36 245.74,44.47 245.98,44.58 246.5,44.77 246.71,44.83 247.11,44.88 249.08,45.07 249.3,45.07 249.51,45.06 249.78,44.97 251.47,44.3 251.67,44.2 251.9,44.03 252.19,43.76 253.5,42.29 253.77,42 254.88,40.98 255.72,40.22 255.89,40.1 256.08,40 256.77,39.75 257.09,39.63 258.26,39.01 259.48,38.34 260.38,37.72 260.61,37.55 260.84,37.32 260.65,36.32 260.65,36.32 260.65,36.32 260.65,36.32 262.04,35.96 262.82,35.78 263.23,35.64 263.23,35.64 263.31,35.75 263.48,35.87 263.67,35.93 264.04,35.88 264.26,35.85 264.48,35.85 264.64,35.88 264.78,35.99 264.96,36.19 265.58,37 265.96,37.56 266.1,37.73 266.27,37.86 266.6,38.06 268.24,38.92 268.5,39.02 269.52,39.38 269.71,39.41 269.88,39.37 270.04,39.25 270.17,39.11 270.27,38.88 270.38,38.71 270.51,38.55 270.67,38.42 270.91,38.27 271.95,37.72 272.16,37.64 272.74,37.46 274.35,37.06 276.03,36.84 277.91,36.62 278.2,36.57 278.39,36.5 278.59,36.41 278.83,36.26 279,36.11 279.17,35.9 279.33,35.78 279.52,35.7 279.71,35.65 279.96,35.64 280.52,35.67 281.14,35.73 281.37,35.73 281.64,35.66 282.68,35.31 283.98,34.91 284.36,34.83 284.58,34.8 284.8,34.84 285.26,34.96 285.46,34.98 285.68,34.96 286.13,34.87 286.52,34.78 286.78,34.68 287.5,34.38 288.44,34.07 288.77,33.99 291.26,33.65 291.26,33.65" vector-effect="non-scaling-stroke"></path></g>
<g id="10_susurluk" name="susurluk"  data-type="ilce" data-textpath="M286.19,66.35 Q287.69,94.36 298.02,108.38" data-fontsize="5.5px"><path d="M285.81,70.51 285.81,70.51 286.22,70.39 286.42,69.76 286.71,69.18 286.66,68.98 286.87,68.63 286.38,68.27 286.14,68.01 286.33,67.75 286.61,67.27 286.56,66.56 286.19,66.35 286.32,65.97 286.64,65.79 288.01,65.15 288.01,65.15 288.01,65.15 288.06,65.42 289.18,69.41 290.92,71.81 293.93,75.25 293.93,75.25 293.93,75.25 293.93,75.25 293.29,76.37 292.63,76.81 292.17,77.47 292.27,78.07 292.47,78.51 293.14,78.77 293.38,79.16 292.82,79.61 292.5,79.88 292.75,80.39 292.55,81.39 295.98,85.06 299.05,87.5 300.1,89.28 299.83,91.81 300.29,94.25 303.37,96.59 305.63,98.25 306.72,98.86 306.72,98.86 306.67,99.1 304.99,101.56 302.38,102.69 300.33,105.03 298.02,108.38 296.78,110.5 294.02,111.85 290.88,111.47 288.47,111.29 287.47,111.75 284.63,112.31 284.63,112.31 284.63,112.31 284.29,111.79 282.42,110.33 278.85,109.57 278.85,109.57 278.85,109.57 278.85,109.57 276.12,108.32 273.8,107.15 272.64,103.74 272.61,100.16 272.72,96.21 272.49,92.81 272.61,91.42 272.61,91.42 274.92,90.71 276.73,88.62 277.29,86.58 278.12,85.26 281.41,82.68 281.93,80.23 282.06,77.2 283.63,73.67 283.98,73.13 284.65,72.96 284.82,72.55 285.37,72.76 285.47,72.49 285.71,72.21 285.89,71.84 285.67,71.54 285.81,70.51 285.81,70.51" vector-effect="non-scaling-stroke"></path></g>
<g id="10_kepsut" name="kepsut"  data-type="ilce" data-textpath="M284.5,140.17 Q300.54,120.77 318.5,103.56" data-fontsize="8.3px"><path d="M284.63,112.31 284.63,112.31 287.47,111.75 288.47,111.29 290.88,111.47 294.02,111.85 296.78,110.5 298.02,108.38 300.33,105.03 302.38,102.69 304.99,101.56 306.67,99.1 306.72,98.86 306.72,98.86 307.1,99.07 311.58,100.73 314.08,100.52 317.19,101.21 318.5,103.56 318.62,105.9 320.31,108.93 322.38,111.07 324.25,112.84 326.17,113.75 326.17,113.75 326.17,113.75 326.08,114.12 324.96,116.65 323.3,118.31 320.86,119.78 316.98,120.84 314.41,122.24 312.59,124.43 311.77,128.5 310.7,130.08 307.64,132.32 306.07,134.02 305.78,136.08 303.35,138.77 302.13,141.06 300.72,143.15 300.72,143.15 300.72,143.15 300.11,143.11 296.85,141.44 294.53,139.2 292.96,139.05 291.62,139.5 289.05,139.69 287.23,139.21 285.24,139.88 284.91,140.38 284.5,140.17 284.39,139.49 284.25,138.93 283.81,138.45 283.83,138.28 283.83,138.28 283.83,138.28 284.1,137.83 283.64,136.8 283.53,136.2 283.25,135.72 283.5,135.24 283.5,134.8 282.93,134.37 282.37,133.7 282.17,133.12 281.93,132.53 281.2,132.21 280.21,132.05 280.15,131.49 280.19,130.67 280.48,129.84 280.15,129.25 278.71,124.68 279,123.13 278.7,119.77 280.81,116.2 283.87,114.55 284.63,112.31 284.63,112.31" vector-effect="non-scaling-stroke"></path></g>
<g id="10_dursunbey" name="dursunbey"  data-type="ilce" data-textpath="M300.72,143.15 Q338.71,139.86 372.85,134.75" data-fontsize="8.1px"><path d="M300.72,143.15 300.72,143.15 302.13,141.06 303.35,138.77 305.78,136.08 306.07,134.02 307.64,132.32 310.7,130.08 311.77,128.5 312.59,124.43 314.41,122.24 316.98,120.84 320.86,119.78 323.3,118.31 324.96,116.65 326.08,114.12 326.17,113.75 326.17,113.75 326.17,113.75 329.35,114.5 332.03,114.98 334.42,116.08 336.64,116.14 338.56,114.74 340.28,112.61 341.75,111.12 343.99,110.75 344.21,110.71 344.21,110.71 344.29,110.71 344.61,110.73 345.11,110.85 345.46,111.38 345.78,111.78 346.1,111.95 345.97,112.48 345.65,112.86 345.84,113.25 346.21,112.93 346.47,113.06 346.4,113.49 346.03,113.76 345.99,114.32 345.87,114.78 345.99,115.15 345.97,115.48 345.64,115.92 345.89,116.29 346,116.68 345.66,117.15 345.68,117.54 345.77,117.96 345.65,118.47 345.95,118.74 345.88,118.93 345.83,119.29 346.03,119.62 346.09,119.91 346.39,120.68 348.15,121.71 349.12,123.9 349.87,126.18 349.89,126.39 349.94,126.84 350.06,127.18 350.57,127.05 351.02,127.06 351.45,127.24 351.82,127.44 352.26,128.19 352.01,128.68 351.86,128.87 351.91,129.26 352.28,129.5 352.66,129.84 353.18,129.85 353.56,129.87 353.77,130.06 353.99,130.45 354.46,130.74 354.87,130.77 355.29,131.02 355.6,131.06 356.19,130.95 356.67,130.96 356.89,131.26 357.28,131.16 357.57,130.8 358.08,130.57 358.26,130.68 358.55,130.75 358.84,130.6 358.96,130.8 359.14,131.18 359.55,131.24 359.77,131.36 360.01,131.18 360.3,130.87 360.59,130.93 360.91,131 361.26,130.94 361.37,130.57 361.66,130.68 362.09,130.64 362.42,130.41 362.54,130.23 362.65,129.99 362.98,130.08 363.38,130.23 363.52,130.38 363.9,130.3 364.21,130.16 364.46,130.22 364.91,130.08 365.28,130.49 365.78,130.43 366.21,130.36 366.61,130.18 367,130.07 367.22,130.37 367.57,130.62 367.65,130.63 367.65,130.63 367.65,130.63 368.05,130.75 368.36,130.54 368.69,130.67 369.12,130.7 370.82,130.88 372.01,131.82 372.35,131.93 372.35,131.93 372.35,131.93 371.76,132.08 371.67,132.64 371.97,133.05 371.74,133.58 372.13,133.6 372.43,133.11 372.68,133.36 372.51,133.82 372.64,134.44 372.85,134.75 372.68,135.44 372.06,135.42 371.71,135.56 372.06,135.81 371.5,136 371.49,136.46 371.43,136.78 371.57,137.19 371.05,137.14 370.55,137.54 370.21,137.72 369.91,137.74 369.27,138.01 368.83,138.34 368.53,138.29 368.33,138.03 368.33,138.61 368.67,138.99 368.23,139.07 367.83,139.01 367.55,139.13 368.07,139.45 368.26,139.83 368.36,140.4 368.03,140.62 367.76,140.89 367.76,140.89 367.76,140.89 367.76,140.89 367.49,141.18 367.87,141.43 367.42,141.63 366.98,141.49 367.11,141.94 366.62,142.12 366.13,142.53 365.69,142.32 365.76,142.69 365.7,143.11 365.4,143.6 365.73,143.72 365.47,143.93 365.51,144.49 365.55,145.07 365.66,145.62 365.51,146.02 365.38,146.47 365.62,146.9 366.04,147.59 366.68,148.07 366.96,148.54 367.31,149.39 367.56,149.7 368.05,150.41 367.99,150.99 367.88,151.46 367.72,152.07 367.69,152.71 367.38,153.11 367.86,153.5 367.9,153.89 367.8,154.22 368.2,154.5 368.06,155.29 367.42,156.22 364.36,157.05 362.17,158.15 360.63,159.78 360.44,161.17 358.94,163.28 357.22,164.95 355.91,166.9 354.76,169.29 353.59,170.6 353.59,170.6 353.59,170.6 352.49,169.88 351.1,168.69 348.75,166.61 346.78,165.22 344.84,163.14 341.71,161.12 339.79,160.93 337.58,161.22 336.38,160.14 334.28,159.17 331.92,158.73 329.49,158.35 328.46,156.39 327.99,155.51 326.71,154.8 324.37,153.9 322.46,153.62 320.73,153.94 318.06,152.95 317.1,150.58 316.68,148.88 316.17,146.51 314.92,145.61 312.65,145.59 310.55,144.78 307.89,144.6 304.67,144.36 302.25,143.55 300.72,143.15 300.72,143.15" vector-effect="non-scaling-stroke"></path></g>
<g id="10_bigadiç" name="bigadiç"  data-type="ilce" data-textpath="M268.49,148.3 Q303.1,155.99 353.59,170.6" data-fontsize="12.6px"><path d="M283.83,138.28 283.81,138.45 284.25,138.93 284.39,139.49 284.5,140.17 284.91,140.38 285.24,139.88 287.23,139.21 289.05,139.69 291.62,139.5 292.96,139.05 294.53,139.2 296.85,141.44 300.11,143.11 300.72,143.15 300.72,143.15 300.72,143.15 302.25,143.55 304.67,144.36 307.89,144.6 310.55,144.78 312.65,145.59 314.92,145.61 316.17,146.51 316.68,148.88 317.1,150.58 318.06,152.95 320.73,153.94 322.46,153.62 324.37,153.9 326.71,154.8 327.99,155.51 328.46,156.39 329.49,158.35 331.92,158.73 334.28,159.17 336.38,160.14 337.58,161.22 339.79,160.93 341.71,161.12 344.84,163.14 346.78,165.22 348.75,166.61 351.1,168.69 352.49,169.88 353.59,170.6 353.59,170.6 353.59,170.6 351.01,172.42 347.83,173.96 344.95,173.85 340.97,172.53 339.06,170.38 338.37,168.86 338.37,168.86 338.37,168.86 336.39,168.41 333.97,167.26 332.2,166.51 330.29,167.18 328.75,167.31 327.66,168.02 326.04,167.8 322.59,166.76 319.67,166.58 317.19,167.94 312.91,168.2 310.43,167.94 307.03,168.25 304.01,167.06 302.37,166.1 300.53,163.98 298.7,163.03 296.54,162.32 293.51,162.2 290.22,163.12 286.71,164.63 284.17,166.12 280.92,165.21 279.9,163.9 277.95,162.97 275.92,162.43 273.26,162.76 271.78,162.7 269,161.15 269,161.15 269,161.15 269.72,156.29 270,151.94 269.88,150.72 268.67,149.83 268.49,148.3 270.09,146.41 271.23,146.56 272.43,147.5 273.34,145.95 273.41,141.85 274.78,139.19 276.49,139.31 278.99,139.03 281.71,139.28 283.59,138.37 283.83,138.28" vector-effect="non-scaling-stroke"></path></g>
<g id="10_sındırgı" name="sındırgı"  data-type="ilce" data-textpath="M266.62,174.37 Q302.17,179.26 339.95,183.86" data-fontsize="9.2px"><path d="M267.16,165.55 267.16,165.55 268.03,166.84 268.67,168.57 269.87,169.6 270.64,170.61 269.85,172.14 268.26,173.34 266.62,174.37 267.21,175.96 269.5,176.88 270.78,178.08 270.31,180.35 271.04,181.97 271.04,181.97 271.04,181.97 271.69,182.64 274.33,183.49 275.57,184.16 277.16,184.46 278.53,185.17 279.87,186.25 282.26,187.29 283.7,188.59 285.14,190.92 285.79,193.51 287.04,195.47 288.44,197.96 288.44,197.96 288.44,197.96 289.03,198.07 291.28,198.3 293.96,197.75 295.29,196.52 296.91,196.39 298.32,197.98 300.35,199.5 302.93,200 305.13,198.9 306.71,198.46 308.51,197.28 310.22,195.53 312.19,195.13 314.46,195.23 316.19,194.98 317.63,194.36 319.4,192.97 322.3,191.32 322.96,191.58 323.23,192.13 323.23,192.13 323.23,192.13 323.37,190.7 326.76,189.29 328.35,188.02 330.21,187.3 332.79,186.81 334.18,186.42 335.32,184.83 336.92,184.72 339.56,185.21 339.56,185.21 339.56,185.21 339.56,185.21 339.95,183.86 339.68,181.63 338.8,180.83 337.27,179.92 336.12,177.37 334.96,175.45 334.63,173.97 334.4,172.33 334.68,171.21 336.43,169.73 338.37,168.86 338.37,168.86 338.37,168.86 338.37,168.86 336.39,168.41 333.97,167.26 332.2,166.51 330.29,167.18 328.75,167.31 327.66,168.02 326.04,167.8 322.59,166.76 319.67,166.58 317.19,167.94 312.91,168.2 310.43,167.94 307.03,168.25 304.01,167.06 302.37,166.1 300.53,163.98 298.7,163.03 296.54,162.32 293.51,162.2 290.22,163.12 286.71,164.63 284.17,166.12 280.92,165.21 279.9,163.9 277.95,162.97 275.92,162.43 273.26,162.76 271.78,162.7 269,161.15 269,161.15 267.45,164.75 267.16,165.55" vector-effect="non-scaling-stroke"></path></g>
<g id="10_gönen" name="gönen"  data-type="ilce" data-textpath="M218.68,85.06 Q235.5,68.51 255.43,53.41" data-fontsize="9.7px"><path d="M236.89,42.55 236.89,42.55 237,43.41 236.57,43.3 236.12,43.5 236.18,44.14 235.98,44.83 235.79,45.57 236.19,46.31 238.83,47.45 242.45,48.4 244.64,49.84 252.73,53.22 255.43,53.41 257.68,56.61 257.69,60.35 257.26,61.57 257.26,61.57 256.03,63.42 255.7,68.04 255.03,70.76 252.64,72.19 252.43,73.69 252.49,78.04 251.31,82.95 249.34,86.31 246.65,90.1 246.65,90.1 246.65,90.1 244.48,90.34 241.51,91.05 239.54,90.72 236.88,90.93 235.57,91.34 233.72,92.3 231.38,92.52 228.44,93.35 225.95,93.72 225.95,93.72 225.95,93.72 226.2,92.24 225.86,89.16 224.07,86.89 219.72,85.31 218.68,85.06 217.99,84.15 217.97,82.23 218.2,80.58 218.69,79.38 218.72,77.31 218.04,75.39 216.22,72.44 215.48,70.62 214.91,69.99 213.2,67.76 213.12,67.63 213.12,67.63 213.12,67.63 212.93,65.2 213.67,63.13 214.92,61.94 216.03,60.25 216.77,58.61 218.67,56.81 220.04,55.58 221.25,54.29 222.78,53.35 224.12,50.92 224.23,50.23 224.25,49.81 224.25,49.44 224.24,49.01 224.35,48.78 224.59,48.41 224.63,48.09 224.7,47.79 224.74,47.45 224.5,47.05 224.21,46.64 224.15,46.14 224.34,45.59 224.41,45.23 224.41,45.23 224.41,45.23 224.41,45.23 225.23,45.41 226.68,45.6 227.14,45.63 227.63,45.63 228.25,45.57 228.64,45.5 229.37,45.31 229.58,45.22 230.16,44.95 231.09,44.39 232.96,43.3 233.22,43.17 234.29,42.77 234.67,42.64 234.89,42.6 235.49,42.54 236.5,42.5 236.71,42.51 236.89,42.55 236.89,42.55" vector-effect="non-scaling-stroke"></path></g>
<g id="10_manyas" name="manyas"  data-type="ilce" data-textpath="M246.65,90.1 Q266.7,76.67 285.89,71.84" data-fontsize="7.2px"><path d="M246.65,90.1 246.65,90.1 249.34,86.31 251.31,82.95 252.49,78.04 252.43,73.69 252.64,72.19 255.03,70.76 255.7,68.04 256.03,63.42 257.26,61.57 257.26,61.57 257.26,61.57 259.28,62.02 267.56,59.81 274.89,61.2 277.2,63.64 278.14,65.67 278.09,66.21 278.17,66.54 278.36,67 278.8,67.06 279.22,67.17 279.63,67.27 279.92,67.49 280.16,67.64 280.48,67.73 280.79,67.87 281.06,68.1 281.56,68.49 281.8,68.75 282.02,68.55 282.18,68.83 282.51,69.02 282.87,69.19 283.57,69.6 284.33,69.74 285.81,70.51 285.81,70.51 285.81,70.51 285.67,71.54 285.89,71.84 285.71,72.21 285.47,72.49 285.37,72.76 284.82,72.55 284.65,72.96 283.98,73.13 283.63,73.67 282.06,77.2 281.93,80.23 281.41,82.68 278.12,85.26 277.29,86.58 276.73,88.62 274.92,90.71 272.61,91.42 272.61,91.42 272.61,91.42 269.06,92.05 266,91.92 263.81,91.78 261.36,91.84 258.85,91.16 258.42,90.79 258.42,90.79 257,90 255.06,89.33 252.67,89.28 251.03,90.16 249.37,90.06 246.65,90.1 246.65,90.1" vector-effect="non-scaling-stroke"></path></g>
<g id="10_karesi" name="karesi"  data-type="ilce" data-textpath="M233.69,124.5 Q258.6,111.24 272.61,91.42" data-fontsize="8.5px"><path d="M232.87,123.87 232.87,123.87 233.1,124.07 233.38,124.27 233.69,124.5 233.94,124.5 234.19,124.46 234.37,124.43 234.53,124.27 234.66,124.18 235.06,124.14 235.24,124.15 236.19,124.34 237.5,124.75 238.65,124.74 239.94,125.06 241.77,125.89 243.17,126.83 244.49,128.02 245.6,128.35 246.6,128.83 247.47,128.91 248.7,128.99 249.71,128.7 252.5,128.51 253.93,128.1 255.21,128.01 256.15,127.83 257.22,127.89 258.36,127.66 259.8,127.58 260.22,127.35 260.35,126.94 260.54,126.57 260.66,126.43 261.13,126.51 261.25,126.61 261.13,126.67 261.09,126.73 261.02,126.76 260.92,126.82 260.99,127.18 261.46,127.08 261.5,127.17 261.51,127.27 261.78,127.38 261.8,127.84 262.12,128.08 262.44,127.94 262.42,127.51 262.77,126.95 263.27,126.47 266.72,124.12 267.53,123.65 267.3,123.12 267.26,122.84 269.06,121.41 269.56,121.12 269.96,120.84 270.08,120.33 270.09,119.75 270.15,119.38 270.33,119.08 270.49,118.81 270.12,117.78 270.08,117.33 270.32,117 270.91,116.48 271.67,116.26 272.62,115.97 273.03,115.61 273.21,114.93 273.44,113.87 273.81,113.14 274.18,112.74 274.76,111.88 275.16,111.28 275.6,110.98 276.69,110.81 277.67,110.64 278.2,110.41 278.39,110.18 278.76,109.68 278.85,109.57 278.85,109.57 278.85,109.57 276.12,108.32 273.8,107.15 272.64,103.74 272.61,100.16 272.72,96.21 272.49,92.81 272.61,91.42 272.61,91.42 272.61,91.42 269.06,92.05 266,91.92 263.81,91.78 261.36,91.84 258.85,91.16 258.42,90.79 258.42,90.79 258.42,90.79 256.79,93.65 254.83,96.92 252.8,100.23 250.35,102.05 249.73,103.99 250.23,105.77 248.82,107.05 245.33,107.81 242.52,107.83 241.63,109.84 241.44,112.37 241.75,115.21 241.75,116.81 243.81,119.53 244.87,121.47 244.51,122.89 242.86,123.88 241.66,124.12 239.78,123.61 238.23,122.88 236.16,122.17 235.25,121.96 234.96,122.48 234.35,123.14 233.83,123.09 233.39,123.47 232.97,123.74 232.87,123.87" vector-effect="non-scaling-stroke"></path></g>
<g id="10_altıeylül" name="altıeylül"  data-type="ilce" data-textpath="M248.83,153.88 Q261.83,138.58 284.29,111.79" data-fontsize="6.1px"><path d="M232.87,123.87 232.87,123.87 233.1,124.07 233.38,124.27 233.69,124.5 233.94,124.5 234.19,124.46 234.37,124.43 234.53,124.27 234.66,124.18 235.06,124.14 235.24,124.15 236.19,124.34 237.5,124.75 238.65,124.74 239.94,125.06 241.77,125.89 243.17,126.83 244.49,128.02 245.6,128.35 246.6,128.83 247.47,128.91 248.7,128.99 249.71,128.7 252.5,128.51 253.93,128.1 255.21,128.01 256.15,127.83 257.22,127.89 258.36,127.66 259.8,127.58 260.22,127.35 260.35,126.94 260.54,126.57 260.66,126.43 261.13,126.51 261.25,126.61 261.13,126.67 261.09,126.73 261.02,126.76 260.92,126.82 260.99,127.18 261.46,127.08 261.5,127.17 261.51,127.27 261.78,127.38 261.8,127.84 262.12,128.08 262.44,127.94 262.42,127.51 262.77,126.95 263.27,126.47 266.72,124.12 267.53,123.65 267.3,123.12 267.26,122.84 269.06,121.41 269.56,121.12 269.96,120.84 270.08,120.33 270.09,119.75 270.15,119.38 270.33,119.08 270.49,118.81 270.12,117.78 270.08,117.33 270.32,117 270.91,116.48 271.67,116.26 272.62,115.97 273.03,115.61 273.21,114.93 273.44,113.87 273.81,113.14 274.18,112.74 274.76,111.88 275.16,111.28 275.6,110.98 276.69,110.81 277.67,110.64 278.2,110.41 278.39,110.18 278.76,109.68 278.85,109.57 278.85,109.57 278.85,109.57 282.42,110.33 284.29,111.79 284.63,112.31 284.63,112.31 284.63,112.31 283.87,114.55 280.81,116.2 278.7,119.77 279,123.13 278.71,124.68 280.15,129.25 280.48,129.84 280.19,130.67 280.15,131.49 280.21,132.05 281.2,132.21 281.93,132.53 282.17,133.12 282.37,133.7 282.93,134.37 283.5,134.8 283.5,135.24 283.25,135.72 283.53,136.2 283.64,136.8 284.1,137.83 283.83,138.28 283.83,138.28 283.83,138.28 283.59,138.37 281.71,139.28 278.99,139.03 276.49,139.31 274.78,139.19 273.41,141.85 273.34,145.95 272.43,147.5 271.23,146.56 270.09,146.41 268.49,148.3 268.67,149.83 269.88,150.72 270,151.94 269.72,156.29 269,161.15 269,161.15 269,161.15 267.45,164.75 267.16,165.55 267.16,165.55 267.11,165.49 264.05,164.6 262.24,164.7 260.65,166.35 259.61,167.24 257.9,167.67 257.9,167.67 257.9,167.67 257.83,166.7 257.44,164.79 256.02,161.87 255.4,159.7 254.71,157.81 252.14,157.62 250.66,156.48 248.83,153.88 248.57,151.83 248.91,149.99 248.28,146.72 247.83,143.97 246.26,143.41 243.87,142.47 242.66,141 239.34,140.33 237.79,139.66 237.1,138.95 237.1,138.95 237.63,136.84 237.3,133.65 237.62,131.41 239.11,130.29 240.62,129.7 241.04,128.01 238.55,127.2 231.4,124.8 231.4,124.8 231.4,124.8 231.4,124.8 231.32,124.46 231.64,124.09 232.27,124.1 232.72,124.06 232.87,123.87" vector-effect="non-scaling-stroke"></path></g>
<g id="10_savaştepe" name="savaştepe"  data-type="ilce" data-textpath="M223.08,157.24 Q239.85,154.96 257.9,167.67" data-fontsize="4.0px"><path d="M237.1,138.95 237.79,139.66 239.34,140.33 242.66,141 243.87,142.47 246.26,143.41 247.83,143.97 248.28,146.72 248.91,149.99 248.57,151.83 248.83,153.88 250.66,156.48 252.14,157.62 254.71,157.81 255.4,159.7 256.02,161.87 257.44,164.79 257.83,166.7 257.9,167.67 257.9,167.67 257.47,167.93 255.6,168.44 255.35,168.39 255.35,168.39 255.35,168.39 253.5,167.61 250.89,166.81 249.82,164.93 247.89,163.38 246.28,162.77 244.75,163.38 243.38,164.26 242.5,164.88 241.32,165.6 240.23,165.95 238.97,166 237.65,165.87 236.57,165.46 235.63,164.95 234.6,164.36 232.04,164.2 230.22,164.7 229.74,162.59 229.21,161.11 227.52,160.22 226.08,160.51 225.13,158.92 224.02,157.63 223.08,157.24 223.08,157.24 223.25,155.84 224.2,152.25 226.13,150.75 227.85,149.89 228.08,148.3 229.1,147.01 231.56,145.77 234.19,144.63 235.14,142.72 236.09,140.8 237.1,138.95 237.1,138.95" vector-effect="non-scaling-stroke"></path></g>
<g id="10_balya" name="balya"  data-type="ilce" data-textpath="M202.18,121.17 Q232.29,108.85 258.42,90.79" data-fontsize="12.8px"><path d="M225.95,93.72 225.95,93.72 228.44,93.35 231.38,92.52 233.72,92.3 235.57,91.34 236.88,90.93 239.54,90.72 241.51,91.05 244.48,90.34 246.65,90.1 246.65,90.1 246.65,90.1 249.37,90.06 251.03,90.16 252.67,89.28 255.06,89.33 257,90 258.42,90.79 258.42,90.79 258.42,90.79 256.79,93.65 254.83,96.92 252.8,100.23 250.35,102.05 249.73,103.99 250.23,105.77 248.82,107.05 245.33,107.81 242.52,107.83 241.63,109.84 241.44,112.37 241.75,115.21 241.75,116.81 243.81,119.53 244.87,121.47 244.51,122.89 242.86,123.88 241.66,124.12 239.78,123.61 238.23,122.88 236.16,122.17 235.25,121.96 234.96,122.48 234.35,123.14 233.83,123.09 233.39,123.47 232.97,123.74 232.87,123.87 232.87,123.87 232.72,124.06 232.27,124.1 231.64,124.09 231.32,124.46 231.4,124.8 231.4,124.8 231.4,124.8 231.19,124.97 231.01,125.49 230.84,126.06 230.91,126.36 231.3,126.51 231.2,126.87 231.25,127.27 230.72,127.44 230.49,127.98 230.45,128.29 229.92,128.43 229.64,128.75 229.4,129.27 229.37,129.69 229.33,130.11 228.87,130.41 228.26,130.62 225.91,128.86 224.05,126.3 223.41,125.54 222.21,123.79 220.39,123.28 217.59,124.38 215.21,125.57 213.32,125.57 210.63,125.46 207.59,126.79 207.59,126.79 207.59,126.79 207.05,125.76 205.27,124.58 203.16,122.85 202.18,121.17 202.18,121.17 202.18,121.17 202.18,121.17 203.88,120.98 207.88,119.27 209.54,117.35 211.4,115.77 214.05,114.28 216.44,113.32 218.24,113.13 219.91,110.77 220.69,108.12 221.98,106.32 222.34,103.98 222.2,102.07 222.77,99.38 224.29,96.1 225.5,94.61 225.95,93.72" vector-effect="non-scaling-stroke"></path></g>
<g id="10_ivrindi" name="ivrindi"  data-type="ilce" data-textpath="M192.05,162.2 Q215.7,143.38 238.55,127.2" data-fontsize="8.3px"><path d="M207.59,126.79 207.59,126.79 210.63,125.46 213.32,125.57 215.21,125.57 217.59,124.38 220.39,123.28 222.21,123.79 223.41,125.54 224.05,126.3 225.91,128.86 228.26,130.62 228.87,130.41 229.33,130.11 229.37,129.69 229.4,129.27 229.64,128.75 229.92,128.43 230.45,128.29 230.49,127.98 230.72,127.44 231.25,127.27 231.2,126.87 231.3,126.51 230.91,126.36 230.84,126.06 231.01,125.49 231.19,124.97 231.4,124.8 231.4,124.8 231.4,124.8 238.55,127.2 241.04,128.01 240.62,129.7 239.11,130.29 237.62,131.41 237.3,133.65 237.63,136.84 237.1,138.95 237.1,138.95 237.1,138.95 236.09,140.8 235.14,142.72 234.19,144.63 231.56,145.77 229.1,147.01 228.08,148.3 227.85,149.89 226.13,150.75 224.2,152.25 223.25,155.84 223.08,157.24 223.08,157.24 223.08,157.24 221.38,157.26 219.94,156.77 217.53,156.56 216.37,157.03 215.1,158.55 214.45,160.05 213.16,160.92 212.31,161.48 211.32,162.28 211.32,162.28 211.32,162.28 211.32,162.28 210.95,160.71 210.54,159.77 209.19,159.35 207.78,159.48 207.31,159.02 205.64,158.68 204.22,159.1 203.57,160.11 202.53,161.02 201.71,161.95 200.57,162.28 198.43,162.69 195.94,162.55 195.04,162.03 193.38,162.42 192.05,162.2 192.05,162.2 192.05,162.2 192.05,162.2 191.31,160.26 190.51,158.43 190.07,156.11 189.44,154.36 189.27,153.99 189.27,153.99 189.72,153.9 191.65,153.38 192.37,152.15 193.82,150.98 195.65,149.75 197.14,148.46 199.05,146.31 200.09,145.07 202.34,143.85 203.38,142.91 204.29,141.15 205.75,139.96 207.19,136.45 208.32,135.38 209.32,133.86 209.38,131.43 208.34,129.07 207.59,126.79 207.59,126.79" vector-effect="non-scaling-stroke"></path></g>
<g id="10_havran" name="havran"  data-type="ilce" data-textpath="M185.12,114.36 Q193.34,133.98 202.34,143.85" data-fontsize="5.7px"><path d="M202.18,121.17 202.18,121.17 203.16,122.85 205.27,124.58 207.05,125.76 207.59,126.79 207.59,126.79 207.59,126.79 208.34,129.07 209.38,131.43 209.32,133.86 208.32,135.38 207.19,136.45 205.75,139.96 204.29,141.15 203.38,142.91 202.34,143.85 200.09,145.07 199.05,146.31 197.14,148.46 195.65,149.75 193.82,150.98 192.37,152.15 191.65,153.38 189.72,153.9 189.27,153.99 189.27,153.99 189.27,153.99 188.79,152.69 187.61,150.74 186.53,149.91 185.37,148.43 184,147.25 181.99,144.87 180.64,143.95 178.63,141.84 177.6,140.82 177.6,140.82 177.6,140.82 179.31,136.7 181.77,133.22 182.74,131.46 183.72,128.85 183.91,127.03 184.08,125.34 184.21,124.08 185.21,122.17 185.35,120.59 185.5,118.93 185.72,118.03 185.35,116.38 185.12,114.36 185.12,114.36 185.12,114.36 185.12,114.36 187.61,114.33 190.46,115.41 192.22,115.94 193.91,117.18 196.3,119.1 197.99,120.49 200.89,121.2 202.18,121.17" vector-effect="non-scaling-stroke"></path></g>
<g id="10_edremit" name="edremit"  data-type="ilce" data-textpath="M139.6,138.59 Q164.15,126.99 185.12,114.36" data-fontsize="7.4px"><path d="M169.84,112.42 169.84,112.42 167.76,113.79 165.69,116.18 162.84,117.27 159.92,118.49 158.17,119.57 156.4,120.12 154.11,120.75 150.82,119.23 149.61,117.89 146.59,118.61 144.6,120.5 143.15,123.43 142.69,124.53 142.69,124.53 142.69,124.53 142.08,126.43 141.6,127.23 140.96,128.35 140.66,129.69 140.41,130.06 140.1,130.36 139.81,130.62 139.78,130.96 139.59,131.28 139.5,131.47 139.5,131.82 139.91,131.94 140.2,132.32 140.26,132.84 140.01,133.16 139.72,133.41 139.5,133.84 139.37,134.11 139.28,134.52 139.13,135 139.21,135.38 138.9,135.64 139.21,135.99 139.16,136.42 139.16,136.9 139.44,137.36 139.5,137.87 139.64,138.4 139.6,138.59 139.6,138.59 139.6,138.59 139.76,138.58 139.96,138.53 140.23,138.35 140.43,138.25 140.71,138.16 141.07,138.08 141.28,138.06 141.6,138.09 142.17,138.19 142.7,138.34 143.01,138.42 143.22,138.42 143.47,138.36 143.73,138.28 144.88,137.77 146.43,137.12 146.69,137.02 146.88,136.97 147.08,136.95 147.54,136.95 147.76,136.97 147.97,137.03 148.4,137.16 149.39,137.41 149.65,137.45 149.85,137.43 150.04,137.35 150.25,137.2 150.88,136.65 151.04,136.53 151.22,136.47 151.43,136.46 152.39,136.59 153.35,136.73 155.46,136.85 155.74,136.88 155.94,136.95 156.17,137.09 157.37,137.84 157.56,137.94 157.72,137.95 157.86,137.84 158.09,137.63 158.31,137.47 158.55,137.34 158.88,137.18 159.08,137.12 159.29,137.09 159.67,137.07 159.94,137.01 160.25,136.92 160.44,136.83 160.55,136.7 160.65,136.47 161.1,135.37 161.25,135.07 161.38,134.89 161.52,134.78 161.72,134.72 161.92,134.71 163.47,134.83 163.82,134.87 164.12,134.95 164.45,135.06 164.64,135.08 165.01,135.08 165.22,135.06 165.43,135.02 165.74,134.93 165.93,134.92 166.13,134.99 166.32,135.1 166.73,135.42 167.92,136.52 168.2,136.8 168.36,137.03 168.67,137.5 168.84,137.82 168.97,138.16 169.07,138.47 169.11,138.72 169.12,138.92 169.08,139.13 169.02,139.32 168.95,139.47 168.84,139.62 168.68,139.73 168.4,139.89 168.23,140.02 168.08,140.18 167.94,140.35 167.84,140.51 167.79,140.67 167.76,140.85 167.76,140.87 167.76,140.87 168.05,140.93 168.75,141.23 169.36,141.23 170.08,141.45 171.34,140.25 174.3,139.9 177.6,140.82 177.6,140.82 177.6,140.82 177.6,140.82 179.31,136.7 181.77,133.22 182.74,131.46 183.72,128.85 183.91,127.03 184.08,125.34 184.21,124.08 185.21,122.17 185.35,120.59 185.5,118.93 185.72,118.03 185.35,116.38 185.12,114.36 185.12,114.36 185.12,114.36 184.87,114.38 181.72,114.95 178.66,114.96 176.61,113.95 173.78,112.12 171.66,111.82 169.84,112.42" vector-effect="non-scaling-stroke"></path></g>
<g id="10_burhaniye" name="burhaniye"  data-type="ilce" data-textpath="M159.96,148.13 Q175.91,154.29 192.05,162.2" data-fontsize="3.9px"><path d="M159.55,152.29 159.77,152.47 161.25,153.89 163.62,155.33 165.41,157.14 166.55,159.34 168.13,161.01 169.73,161.94 170.41,163.58 170.34,164.7 171.35,166.51 173.04,169.12 173.04,169.12 173.04,169.12 173.77,169.94 173.79,170.19 173.79,170.19 174.69,169.83 176.18,168.92 176.87,168.34 178.22,167.93 178.72,167.03 180.17,166.11 181.51,165.48 183.53,164.84 184.23,164.12 185.15,162.87 186.7,162.6 188.31,162.4 190.67,162.16 192.05,162.2 192.05,162.2 192.05,162.2 192.05,162.2 191.31,160.26 190.51,158.43 190.07,156.11 189.44,154.36 189.27,153.99 189.27,153.99 189.27,153.99 188.79,152.69 187.61,150.74 186.53,149.91 185.37,148.43 184,147.25 181.99,144.87 180.64,143.95 178.63,141.84 177.6,140.82 177.6,140.82 177.6,140.82 174.3,139.9 171.34,140.25 170.08,141.45 169.36,141.23 168.75,141.23 168.05,140.93 167.76,140.87 167.76,140.87 167.76,140.87 167.77,141.05 167.85,141.45 167.91,141.87 167.92,142.07 167.9,142.26 167.83,142.51 167.65,142.98 167.35,143.68 167.28,143.86 167.18,144.31 167.06,145.06 167.04,145.3 167.06,145.57 167.09,145.98 167.07,146.25 167.01,146.75 166.95,146.96 166.86,147.15 166.74,147.31 166.55,147.42 165.73,147.69 164.37,148.13 163.93,148.24 162.3,148.56 161.89,148.57 161.17,148.56 160.99,148.53 160.83,148.45 160.55,148.27 160.35,148.18 160.16,148.14 159.96,148.13 159.78,148.17 159.64,148.29 159.56,148.48 159.31,149.34 159.26,149.61 159.17,150.28 159.16,150.55 159.19,150.72 159.32,150.9 159.41,151.05 159.51,151.35 159.56,151.54 159.58,151.72 159.57,152.1 159.55,152.29" vector-effect="non-scaling-stroke"></path></g>
<g id="10_gömeç" name="gömeç"  data-type="ilce" data-textpath="M153.64,153.82 Q160.86,161.99 173.04,169.12" data-fontsize="4.9px"><path d="M149.9,162.19 150.53,163.3 152.87,166.15 154.88,167.45 159.55,168.18 165.08,168.84 167.51,168.54 170.45,168.63 173.04,169.12 173.04,169.12 173.04,169.12 173.04,169.12 171.35,166.51 170.34,164.7 170.41,163.58 169.73,161.94 168.13,161.01 166.55,159.34 165.41,157.14 163.62,155.33 161.25,153.89 159.77,152.47 159.55,152.29 159.55,152.29 159.55,152.29 159.52,152.47 159.44,152.66 159.3,152.83 158.98,153.14 158.82,153.27 158.54,153.44 157.58,153.95 157.38,154.03 157.21,154.04 157.06,153.97 156.85,153.85 156.61,153.76 156.21,153.66 155.1,153.47 154.82,153.44 154.33,153.44 154.12,153.46 153.93,153.54 153.77,153.66 153.64,153.82 153.59,154 153.56,154.22 153.56,154.4 153.62,154.58 153.73,154.76 154.08,155.25 154.19,155.44 154.23,155.61 154.22,155.83 154.09,156.48 154.06,156.75 154.1,156.94 154.2,157.12 154.33,157.27 154.55,157.41 154.67,157.54 154.74,157.68 154.76,157.85 154.76,158.03 154.72,158.25 154.6,158.58 154.52,158.76 154.4,158.9 154.16,159.06 153.62,159.37 153.44,159.5 153.3,159.67 152.88,160.31 152.58,160.71 152.21,161.13 152.01,161.32 151.71,161.56 151.52,161.66 151.32,161.71 150.92,161.73 150.66,161.76 150.47,161.83 150.18,162 149.93,162.17" vector-effect="non-scaling-stroke"></path></g>
<g id="10_ayvalık" name="ayvalık"  data-type="ilce" data-textpath="M127.15,167.12 Q151.31,171.99 173.79,170.19" data-fontsize="6.7px"><path d="M150.79,186.84 151.28,186.21 151.55,185.73 152.03,185.15 152.44,184.39 152.96,183.98 153.07,183.28 153.69,182.59 154.38,181.99 155.42,181.26 155.61,180.63 156.18,180.35 156.22,179.92 156.46,179.52 156.5,179.12 156.74,178.85 157.09,178.81 157.03,178.51 157.59,178.56 157.66,178.17 158.68,178.17 160.63,178.32 161.65,178.27 162.36,177.4 162.36,177.4 162.36,177.4 162.36,177.4 162.65,176.82 162.61,176.14 163.16,175.48 163.61,175.39 163.67,175.05 163.99,174.48 165.45,173.72 166.79,173 169.06,172.02 171.06,171.17 173.79,170.19 173.79,170.19 173.79,170.19 173.77,169.94 173.04,169.12 173.04,169.12 173.04,169.12 170.45,168.63 167.51,168.54 165.08,168.84 159.55,168.18 154.88,167.45 152.87,166.15 150.53,163.3 149.9,162.19 149.9,162.19 149.9,162.19 149.39,162.52 149.19,162.61 148.27,162.88 147.95,162.99 147.78,163.1 147.65,163.27 147.42,163.66 147.29,163.82 147.12,163.96 145.75,164.88 145.53,165 143.88,164.9 143.07,164.34 142.97,165.01 143.98,165.33 143.95,166 143.83,166.14 143.73,166.3 143.56,166.65 143.1,167.68 143.03,167.88 142.98,168.21 142.91,168.4 142.82,168.57 142.68,168.67 142.49,168.73 142.17,168.75 141.59,168.77 141.38,168.82 141.2,168.92 140.91,169.15 140.29,169.72 140.15,169.89 140.07,170.09 139.99,170.41 139.96,170.64 139.97,170.83 140,171.01 140.08,171.11 140.25,171.1 140.49,171.04 140.67,171.07 140.82,171.22 141.07,171.59 141.17,171.79 141.27,172.03 141.32,172.23 141.3,172.42 141.23,172.61 141.13,172.78 140.99,172.9 140.82,172.93 140.64,172.9 140.44,172.83 140.21,172.71 139.97,172.54 139.63,172.25 139.49,172.09 139.45,171.92 139.5,171.78 139.65,171.57 139.71,171.38 139.7,171.21 139.63,171.03 139.5,170.87 139.34,170.73 139.17,170.62 139,170.6 138.88,170.7 138.75,170.96 138.61,171.1 138.41,171.17 138.14,171.21 137.79,171.22 137.58,171.2 137.4,171.11 137.25,170.95 137.15,170.76 137.1,170.56 137.11,170.37 137.19,170.17 137.29,170.02 137.42,169.93 137.63,169.88 138.6,169.76 138.82,169.76 139.11,169.84 139.29,169.88 139.43,169.82 139.51,169.64 139.55,169.37 139.61,168.47 139.59,168.3 139.54,168.13 139.42,167.88 139.21,167.55 139.07,167.43 138.91,167.42 138.76,167.49 138.45,167.79 137.85,168.32 137.69,168.45 137.52,168.52 137.32,168.53 136.99,168.52 136.79,168.53 136.64,168.65 136.53,168.83 136.39,169.13 136.32,169.32 136.27,169.51 136.26,169.72 136.29,170.42 136.28,170.68 136.22,171 136.01,171.86 135.93,172.03 135.8,172.16 135.6,172.26 135.29,172.35 135.12,172.42 135.01,172.57 134.94,172.76 134.87,173.07 134.86,173.28 134.89,173.48 134.96,173.6 135.15,173.69 135.37,173.75 135.59,173.74 135.96,173.67 136.16,173.65 136.43,173.66 137.15,173.75 137.35,173.8 137.49,173.9 137.54,174.09 137.59,174.21 137.73,174.32 137.92,174.38 138.19,174.42 138.79,174.44 139.35,174.42 140.29,174.35 140.82,174.29 141.1,174.3 143.04,174.51 144.03,174.67 144.3,174.73 144.55,174.82 145,175.01 145.24,175.15 145.92,175.61 146.12,175.77 146.34,176.01 146.64,176.39 146.83,176.71 147.02,177.1 147.32,177.83 147.48,178.31 147.54,178.6 147.57,178.92 147.64,180.67 147.63,181 147.57,181.56 147.52,181.74 147.44,181.79 146.29,179.74 146.39,180.3 147.49,182.21 148.55,183.39 149.67,184.74 149.9,185.05 150.18,185.47 150.27,185.65 150.39,185.98 150.47,186.27 150.53,186.58 150.64,186.73 150.78,186.83 150.79,186.84 M135.82357864678306,160.93101437125097 135.82357864678306,160.93101437125097 136.30726742315983,162.72032223242786 136.3513414538179,162.95170224596768 136.3516814330501,163.1278671114169 136.2937526505043,163.25185981758932 136.13631712692404,163.3219650006722 135.9665443192339,163.31103566683032 135.77885477638574,163.25051095892832 135.5335897330733,163.13761450823858 135.3230523990028,163.10782008658953 135.17482803966914,163.13937603507748 135.04081704054624,163.21152442347375 134.91876274370952,163.35249352022765 134.82574587548424,163.5465261326508 134.79855849229443,163.69132023894417 134.80823808824698,163.85360562239566 134.86351732943422,164.06765638188517 135.25246510249463,165.22707467901273 135.36898324510048,165.52673322985902 135.52165006758878,165.81030464810374 136.10756320946712,166.74057980644193 136.24630340845943,166.90161606036418 136.38850834971436,166.9872411004826 136.54335663194206,167.04019012960453 136.93454256352516,167.12446285494116 137.21731454234623,167.16688294525375 137.65966139932016,167.17941810496086 138.5492923120123,167.13329314269868 138.76822971849742,167.0937551957768 139.07542765267362,166.9902927331541 139.4550948121132,166.89306812411724 141.61493864810154,166.41766037145953 142.17734744990366,166.29702754538175 142.3722448955059,166.21974886980115 142.47698743483625,166.07587822420373 142.51887812784798,165.88700848581448 142.51832718240075,165.67115403980733 142.46250122531,165.22484431305475 142.41714803913374,165.0418859233423 142.34400001485756,164.92122390993973 142.20992350716097,164.86303744736688 142.00958526124623,164.89655484077048 141.81535425434504,164.97403906790169 141.6639316435294,165.06540452064746 141.4899823080491,165.19164352664302 141.29331115620198,165.26837179485847 140.81141220631253,165.38358878237068 140.60400457993592,165.4056827429058 140.41479509443343,165.3849108575896 140.2580806974297,165.3003917509459 140.10743135455914,165.1654180485648 139.93863511210475,164.97234182174452 139.75936105275196,164.6968379226173 139.28093416083857,163.89691652664987 139.19322651122002,163.7052238549877 139.17608717519352,163.53703325632432 139.22638431537143,163.37969097388395 139.39030571902003,163.13242122099018 139.45470149757557,162.96272606313596 139.41965989906248,162.77728834926893 139.32934033686615,162.59459121962027 139.20203808041788,162.44186813433407 139.00949228889885,162.35893851776382 138.83156533641886,162.3449836762984 138.61567026913917,162.38037743546556 138.4053772417924,162.44257271476545 138.22259305636453,162.53957165081738 138.0947265453501,162.66920224067962 137.90106892394488,162.90428739652725 137.73631795798246,163.02159623129228 137.56085800076107,163.10997845927432 137.39209157005644,163.13662452457083 137.2432346829578,163.0761899917252 137.10043592809552,162.94751371200255 136.96836197604853,162.77633416811477 136.76829379393303,162.43436403937176 136.3679277056558,161.68655026727538 136.2917679667121,161.49055395941014 136.2107314099194,161.13449198886792 136.13871462519955,160.63490975219338 136.15282180069107,160.42977778450495 136.23602490426856,160.2795780338938 136.37243562608,160.22042843498548 136.52695010520256,160.25604711033793 136.71872796552407,160.36240820837884 136.92221552623187,160.43633683789994 137.46467385211645,160.57341358703434 138.18408426003543,160.72791714363302 138.9520169595835,160.84878652954194 139.4002727610532,160.87707468040298 139.7821922029566,160.88469600688586 139.97401596627878,160.85326870469817 140.11969440493658,160.73666548144138 140.2319473560692,160.5624357533361 140.50538232943381,160.0346367681741 140.80853673234424,159.33870479111465 140.8401556521726,159.17572507774457 140.73661502903906,159.1065530694441 140.5441793323962,159.10393409178323 140.33006089811124,159.13805588485593 140.11509950998106,159.20282071974907 139.79947337705062,159.33264079827404 139.51256359590525,159.48123388464592 139.04618606262557,159.7467643160644 138.80036276555938,159.856462171133 138.60512053953335,159.89833087163424 138.44226579357564,159.85191157025656 138.29013722598938,159.7491077845125 137.82278534521674,159.34017880405645 136.9041527199497,158.5306331483689 136.76354068026558,158.4520209070306 136.56468972223138,158.418801046324 136.34430117236752,158.4229954654911 136.1061711177108,158.45618153564646 135.78640414309075,158.53547766334304 134.9162200217702,158.79463752178253 134.53875392484815,158.9348407990392 134.3421661110183,159.0481789713158 134.1756496608432,159.1904621015783 134.0045774051041,159.3750081992266 133.9343882062385,159.50525274520714 134.0144126668465,159.5813234306679 134.36041253910707,159.66351333396506 134.63029623186867,159.7356923862817 135.41979694964357,160.05388596007015 135.68499677424143,160.5093327243103 135.76244235103513,160.71628039829466 135.82357864678306,160.93101437125097 M132.63624122444708,158.4257903066573 132.63624122444708,158.4257903066573 131.85989148268482,158.7760984825427 131.68263516326533,158.88973085735233 131.60272824054164,159.02051256035156 131.58287355608763,159.22473345684193 131.60726183110182,159.60712992786102 131.64096746008454,159.8774498254552 131.70787264742103,160.081423681223 131.84216988405979,160.32135733778705 132.42942385283368,161.26875472361553 132.5544403277463,161.43492170253376 132.73229216232176,161.61756330916342 132.90295379000327,161.7285589790945 133.0567119232701,161.71363704316354 133.18292517152804,161.6210935953486 133.25758577465604,161.50169488500433 133.25368966537417,161.34494323578474 133.16066974357227,161.16063753461003 133.12625003637504,161.03793656576272 133.134816505843,160.83740603445767 133.19565668914038,160.62000560220713 133.26068452070695,160.52027774270937 133.3909673204589,160.39833640582128 133.54123597159332,160.1672743194622 133.78453037020518,159.47026794301564 134.01424997348477,158.77433025571827 134.0301474765297,158.58550224430473 133.95671120922862,158.4615945214464 133.77208464048863,158.38611200768082 133.385693218685,158.3053132463192 133.109421029254,158.2765445364921 132.89621742657528,158.31903722269453 132.63624122444708,158.4257903066573 132.63624122444708,158.4257903066573 M134.04214707699566,164.46830722232244 134.04214707699566,164.46830722232244 134.03316132370173,164.73726339409677 133.70325679966436,164.7784500206526 133.2353181215999,164.6733673052704 132.76276338117077,164.76678111189904 132.54913760617683,164.55364775573435 132.62208896841503,164.216279588195 132.99134539948773,164.06811621550514 133.44873623711237,164.05667149247438 133.81969723030352,164.1571086614922 134.02057747049003,164.40638651457266 134.04214707699566,164.46830722232244 M134.95072677663165,166.13387418551883 134.95072677663165,166.13387418551883 134.5495467959595,166.15757364986166 134.06349278772632,166.09956761545527 133.68826253686166,165.8613450776529 133.829460974222,165.4147308429492 134.19510994132042,165.02821022457647 134.62086531938576,165.0365373959903 134.93068700530466,165.23872424610545 135.1388396872435,165.52949152480687 135.27035994614653,165.9051926529637 134.95072677663165,166.13387418551883 134.95072677663165,166.13387418551883 M132.12689667326867,173.19590137879186 132.12689667326867,173.19590137879186 132.31733409715616,173.16872081754718 132.59545968086832,173.05889444583954 132.7914080254327,172.95212285408525 132.99731741284677,172.78842482749405 133.65186941959746,172.170914095037 133.7907536212565,172.00483905315014 133.86400006352824,171.8121125521675 133.97433240797864,170.78845705924232 133.99734990997467,170.41294573756204 133.98896430548848,170.21072043051936 133.9398737051947,170.03024438972534 133.84896496962074,169.91275586596112 133.70379429407558,169.86394929180642 133.54489904999036,169.87842396815722 133.3514104230635,169.94729778565943 133.21121282159265,170.04819599636812 133.2178859722112,170.18835442326508 133.31196560100443,170.36625515157357 133.3522619527089,170.53531893792933 133.34109416882575,170.70904728695223 133.27527422964022,170.9546064831593 133.18079577811932,171.19221823727094 133.0660093411234,171.38711969700307 132.689388379114,171.8758834074224 132.46724034335375,172.12629758223375 132.29997388408128,172.25818418647304 132.06291782099697,172.39638489996105 131.906535997618,172.53736276358813 131.77359859751095,172.70034099711393 131.69527776189943,172.86889655141385 131.71142931300483,173.00931505512563 131.80613579984902,173.12053211682905 132.00990229297622,173.1896925163428 132.12689667326867,173.19590137879186 M127.92554576202201,166.4518528028675 127.92554576202201,166.4518528028675 128.13989903476886,166.70093763002478 128.18195450988014,167.1220566855245 127.83589897636466,167.34420476925334 127.46102319224201,167.32366856805766 127.15363194664542,167.12289048671573 127.15839737968145,166.75725131634317 127.4524575086366,166.49590506437562 127.85661150192163,166.44862772051056 127.92554576202201,166.4518528028675 M144.7330192460281,161.16176189792805 144.7330192460281,161.16176189792805 144.36918505323274,161.09697400996993 144.2275662911784,160.78191062422138 144.26804830187803,160.48924572166015 144.46999074060523,160.15728947013213 144.83770993579355,160.3244674091584 144.89196205082226,160.7074697110438 144.7872099166475,161.08524520686115 144.7330192460281,161.16176189792805" vector-effect="non-scaling-stroke"></path></g>
<g id="10_marmara" name="marmara"  data-type="ilce" data-textpath="M222.42,24.52 Q233.8,8.07 246.58,3.35" data-fontsize="4.6px"><path d="M235.62593443765127,1.01159101653775 235.62593443765127,1.01159101653775 235.45947517680042,1.1458127165033147 235.09243879683618,1.366960597311845 234.9041234728902,1.4559734257445598 234.71683669335653,1.517532608174406 234.53907210496482,1.5350985045643029 234.34209275288822,1.456167368341994 234.21480656500717,1.2738743644913484 234.15842392285003,1.1595726744271815 233.9408818542356,1.1461479541922017 233.6528728176172,1.1802814893153482 231.49717973742145,1.6345652962272652 231.12544546014624,1.7346690261638287 230.92953744533997,1.824937401310308 230.822608492992,1.9395026410038554 230.7643260030236,2.129232811392285 230.72740930608234,2.448292202850098 230.6974637223202,2.611431178877865 230.63143532307504,2.748993779176999 230.47602442286825,2.863052078059809 230.2118083933583,2.958657226190553 229.54825938877593,3.1528905522709465 229.32949366119328,3.174066835472331 229.11783289475534,3.1391769084411862 228.85706226098318,3.063291548601228 228.67351256428765,2.978451955489618 228.54141442246737,2.880717113753235 228.24352771632084,2.584712743093405 228.08937862469975,2.4430969668310354 227.91308278533006,2.364521873960257 227.698640064546,2.3828155759556466 227.18968781866124,2.5089197516153945 226.92133000997228,2.60368460747668 226.75297842818918,2.732758029532306 226.58004697155093,2.938989259576374 226.4610805993516,3.1162598287601213 226.38896164550215,3.313184083235683 226.36056583306663,3.584248156878857 226.33053000536347,4.356710047886736 226.35260800501965,4.625425759988502 226.40044081459155,4.8290656293947904 226.50554555941835,4.99475615243955 226.7330966023701,5.275546856675646 226.86689654838256,5.518198451299213 227.0311285057951,5.870661881389424 227.0982048007636,6.093632895070186 227.11877658134836,6.288744677225623 227.10464488352864,6.482284874833567 227.04455001125234,6.727329487686802 226.8920306117352,7.175550350922094 226.79579299981833,7.362931277501048 226.6126044164921,7.6328973929284984 226.55046075680502,7.835826727365202 226.51966223672252,8.280049444485485 226.51858795228964,8.556961023751683 226.55053506331478,8.722132278277059 226.66556840480916,8.8535829534203 226.86458353728767,8.93873652102593 227.07391176834744,8.979800535971663 227.36295164492458,9.005368210024244 227.56148219207944,9.064336656133491 227.76228874713115,9.153971766561881 228.37059918344448,9.491010383901084 229.54644223493824,10.200799216831001 229.8231335949331,10.397878709095494 230.17627816002096,10.692801266297465 230.33889038106463,10.8128182209839 230.54534554155452,10.89594490422678 231.09699704242666,11.054557031206059 231.31650513718296,11.097305661347491 231.52814643561032,11.076408099545006 231.8377398700395,10.953036221872026 232.0482202223443,10.883458282878564 232.27328946128955,10.836512579743612 232.55219696381528,10.821093682717219 233.05650021401334,10.833364125998742 233.45074577742616,10.893566787915006 234.5168676424987,11.07967387532699 234.74339814632094,11.074356112057103 235.0864922821479,11.006981425866798 236.33950931456366,10.705423257359143 238.1697062278554,10.089677452599972 239.09971559188443,9.73977437486974 239.3077781353627,9.63891045735727 239.52913051154792,9.472939717756162 239.72738766988732,9.288904333022401 239.8365550221979,9.137051633992996 239.83396215505627,9.004741899909277 239.7735527861355,8.763259625620776 239.76806214301587,8.563302164065135 239.79697026213535,8.362700680305352 239.8548375931946,8.171572940334954 239.95864648804445,8.020835978298237 240.13643395879808,7.903712779327179 240.33735948904769,7.823222797186645 240.5476502011884,7.764080940486565 240.76730567757158,7.734713421511515 241.0991671878037,7.722844582633115 241.29372747561,7.744600951977191 241.45897632003516,7.803108921720195 241.6851163325955,7.928004512970801 241.82310966312662,7.944300869102335 242.0210346599988,7.8732174419874354 242.91684404879015,7.359878664241478 243.10319947775724,7.232250459921488 243.6380179691787,6.752375644981839 243.8394540431791,6.581271870588353 244.01243299195767,6.483259628716041 244.18705407909192,6.457512808587126 244.3763774738768,6.505798287623293 244.63301844058424,6.626262400111045 244.79051449722283,6.651379353343145 244.97340428163625,6.584555658966565 245.20505926498163,6.421864883624949 245.78071706612945,5.942299918064236 246.16315772737562,5.659358773403255 246.3722401558316,5.537450284783517 247.07221847032451,5.239211500344936 247.30533453578437,5.123508990539449 247.41148948142063,5.0002957725009765 247.45944892024818,4.797181396819724 247.46562860926088,4.579035910555831 247.41715764238188,4.374994782935573 247.26728959639058,4.095721609011889 247.09470288817283,3.8250044406868255 246.92513784103403,3.605693792796046 246.77211212146221,3.451449324310488 246.58201136440857,3.348191556650818 246.0996810000779,3.187459674754791 245.35800830596781,2.9163799209854915 245.16132996418992,2.816395297323652 244.9426149553483,2.6562299446795805 244.6976639783261,2.444196332034153 244.5152503242357,2.2545446145431924 244.3445748295385,2.1153322978489086 244.19093029428814,2.032664783857399 243.9712516880454,1.9733641446127876 243.1061375005479,1.837359372652827 242.82230538556814,1.8160048278868999 242.65695566037812,1.8499373771974206 242.49408060722044,1.9463408261835866 242.30253145495817,2.0998349404753753 242.1156563491345,2.132849632261241 241.7803299791035,2.108819726818183 239.97935641652157,1.8864293476735838 239.5755631333077,1.8250043646921768 239.3572924692853,1.754034627006149 238.74166606859808,1.426343478434319 238.1344559239219,1.0862094383701333 237.96675358456832,0.9471130224510489 237.83633462678654,0.7108633999987433 237.72290790989382,0.5240650866981014 237.5818819523065,0.34464887775629904 237.41711420785896,0.18701563896865991 237.22315732154902,0.06692062922684272 237.02788415961822,0 236.8312749220604,0.02410747527028434 236.57558657370282,0.13818487567004922 236.23015412653558,0.33166562256064935 236.0814881423803,0.45263900379268307 235.7753195413734,0.8437928395333074 235.62593443765127,1.01159101653775 235.62593443765127,1.01159101653775 M220.38072500721046,16.241964557236315 220.38072500721046,16.241964557236315 221.09785947366845,15.807287002730845 221.57181424822284,15.426469279200319 221.82696317669388,15.250892103628757 222.0126838283768,15.159983363658284 222.22577875125899,15.09889732593274 222.69185720037513,15.033306694966086 223.5058957870874,14.956356862137 223.95636687620117,14.942076676513352 224.15044649723723,14.904573589316897 224.2358797193492,14.80942676831819 224.23613153655106,14.664536301428598 224.1830655396211,14.51360213107182 224.08998136925993,14.393730345680524 223.9313035309615,14.296383805507503 223.75898810903027,14.250799456619461 223.5432768404171,14.246815747960682 223.21199984253917,14.280952577420976 221.93313351583402,14.480202087363978 221.60108631711364,14.568618857030742 220.56243751386182,14.89390410777105 220.3731838636104,14.990919995892 220.2762256332644,15.125139545582897 220.2434196169038,15.318765722983699 220.24231459056682,15.579429441865614 220.26227493634406,15.791622392382124 220.31785872555156,16.04933933175198 220.38072500721046,16.241964557236315 220.38072500721046,16.241964557236315 M223.17296821681475,19.818509593137605 223.17296821681475,19.818509593137605 223.07486999494722,20.080930559141052 222.96765785909793,20.261355460625055 222.8350434655399,20.41222607826967 222.62668362505428,20.594150919084314 222.26061025829767,20.86334585460827 222.09227490428475,20.958061828387144 221.8198393222042,21.084387644030357 221.69267208100928,21.205578416725075 221.59005805230345,21.375248417761213 221.51715871240913,21.55890444930992 221.50124809057024,21.72201864877752 221.53652758842873,21.917699437331976 221.66601390643973,22.33856560019558 221.75833899801137,22.52092525707485 221.88412966981423,22.61379849214427 222.0939210047227,22.693779028301833 222.26799845713776,22.818943853812925 222.42692736364825,22.97156644315055 222.56611391536808,23.13765458333546 222.63882316746412,23.296286825777315 222.65693959812916,23.501252118468074 222.6302175951405,23.708780248420226 222.49447351874278,24.089034633900155 222.43508073030534,24.299043467509364 222.41520417134234,24.515902142749837 222.44524026482577,24.716291037804694 222.54724528096858,24.84146900264477 222.70604015757817,24.875191506659576 222.89428912399399,24.81251740859807 223.06396012018376,24.699555027988936 223.24439302323572,24.5232146188182 224.0645369673707,23.63487666079709 224.23155869757375,23.48250199998256 224.42633169550936,23.37357456528207 225.40377854014787,23.03232839735574 226.86912026246955,22.514947566145565 227.12846788359684,22.39890506788197 227.28521014048783,22.287535931572165 227.3997075619095,22.126966906812413 227.42571472184636,21.95689567802583 227.35788821242613,21.85208172124203 227.2836943085813,21.86595416887849 227.1667277190586,21.945465790761773 227.0412478681419,21.956671447767803 226.8589441353215,21.89729442317821 226.68309554852976,21.77943396322462 226.43852062326414,21.56616447583201 226.2519194909778,21.35301452342992 226.05295668860754,21.08026159842757 225.96665024076447,20.897473853297015 225.96711651837313,20.74053462636948 226.04397184739855,20.541832224670543 226.18068958755202,20.29997275959795 226.31729145603458,20.124711538919655 226.68316831862285,19.776431583310114 227.24202704240997,19.30728501999056 227.38673524292562,19.151392225897325 227.45632347909623,18.956336012473002 227.47459437308635,18.736041185891736 227.4747911535901,18.401042296254673 227.43188814057976,18.1956442208957 227.30079102928767,18.02972809208677 226.81787556144218,17.626885426021545 225.66690503737163,16.682407353434428 225.35478576407104,16.47192140872994 224.95579371272652,16.334239160609286 224.75725426310555,16.487566554509613 224.52992640215507,16.77309082161355 223.7949067302693,17.889111613711975 223.66739120734655,18.13236365672128 223.53483090524787,18.549901307139407 223.17296821681475,19.818509593137605" vector-effect="non-scaling-stroke"></path></g>
</g>
</svg>